<mxfile host="www.draw.io" modified="2020-01-29T16:14:16.446Z" agent="Mozilla/5.0 (Windows NT 10.0; WOW64) AppleWebKit/537.36 (KHTML, like Gecko) Chrome/78.0.3904.87 Safari/537.36" etag="LX-kxQJklMlpLpY37SWh" version="12.6.1" type="github">
  <diagram id="k1X5bBvmbNkZK3j2QXO3" name="Page-1">
    <mxGraphModel dx="1408" dy="699" grid="1" gridSize="10" guides="1" tooltips="1" connect="1" arrows="1" fold="1" page="1" pageScale="1" pageWidth="827" pageHeight="1169" math="0" shadow="0">
      <root>
        <mxCell id="0"/>
        <mxCell id="1" parent="0"/>
        <mxCell id="2sJFYJljz5uQflkSVIoG-1" value="fricke.de" style="whiteSpace=wrap;html=1;aspect=fixed;horizontal=1;verticalAlign=top;" parent="1" vertex="1">
          <mxGeometry x="40" y="160" width="400" height="400" as="geometry"/>
        </mxCell>
        <mxCell id="2sJFYJljz5uQflkSVIoG-2" value="Interseroh-portal.de" style="whiteSpace=wrap;html=1;aspect=fixed;verticalAlign=top;" parent="1" vertex="1">
          <mxGeometry x="680" y="160" width="390" height="390" as="geometry"/>
        </mxCell>
        <mxCell id="2sJFYJljz5uQflkSVIoG-4" value="Internet" style="ellipse;shape=cloud;whiteSpace=wrap;html=1;verticalAlign=middle;fillColor=#dae8fc;strokeColor=#6c8ebf;" parent="1" vertex="1">
          <mxGeometry x="250" y="130" width="510" height="340" as="geometry"/>
        </mxCell>
        <mxCell id="2sJFYJljz5uQflkSVIoG-7" value="Fricke-User" style="shape=actor;whiteSpace=wrap;html=1;verticalAlign=bottom;" parent="1" vertex="1">
          <mxGeometry x="552" y="280" width="40" height="60" as="geometry"/>
        </mxCell>
        <mxCell id="2sJFYJljz5uQflkSVIoG-9" value="Portal-Server" style="rounded=0;whiteSpace=wrap;html=1;verticalAlign=top;" parent="1" vertex="1">
          <mxGeometry x="70" y="410" width="190" height="120" as="geometry"/>
        </mxCell>
        <mxCell id="2sJFYJljz5uQflkSVIoG-12" value="Auth-Server?" style="rounded=0;whiteSpace=wrap;html=1;fillColor=#f8cecc;strokeColor=#b85450;" parent="1" vertex="1">
          <mxGeometry x="70" y="190" width="120" height="160" as="geometry"/>
        </mxCell>
        <mxCell id="2sJFYJljz5uQflkSVIoG-13" value="" style="endArrow=classic;html=1;entryX=0.135;entryY=0.5;entryDx=0;entryDy=0;entryPerimeter=0;" parent="1" source="2sJFYJljz5uQflkSVIoG-12" target="2sJFYJljz5uQflkSVIoG-14" edge="1">
          <mxGeometry width="50" height="50" relative="1" as="geometry">
            <mxPoint x="40" y="630" as="sourcePoint"/>
            <mxPoint x="90" y="580" as="targetPoint"/>
          </mxGeometry>
        </mxCell>
        <mxCell id="2sJFYJljz5uQflkSVIoG-15" value="Auth. Cookie" style="text;html=1;align=center;verticalAlign=middle;resizable=0;points=[];labelBackgroundColor=#ffffff;" parent="2sJFYJljz5uQflkSVIoG-13" vertex="1" connectable="0">
          <mxGeometry x="0.0999" y="-1" relative="1" as="geometry">
            <mxPoint as="offset"/>
          </mxGeometry>
        </mxCell>
        <mxCell id="2sJFYJljz5uQflkSVIoG-14" value="" style="shape=mxgraph.cisco.computers_and_peripherals.web_browser;html=1;dashed=0;fillColor=#036897;strokeColor=#ffffff;strokeWidth=2;verticalLabelPosition=bottom;verticalAlign=top" parent="1" vertex="1">
          <mxGeometry x="490" y="323" width="62" height="64" as="geometry"/>
        </mxCell>
        <mxCell id="2sJFYJljz5uQflkSVIoG-17" value="" style="endArrow=classic;html=1;entryX=0.5;entryY=1;entryDx=0;entryDy=0;exitX=0.323;exitY=0.625;exitDx=0;exitDy=0;exitPerimeter=0;" parent="1" source="2sJFYJljz5uQflkSVIoG-14" target="2sJFYJljz5uQflkSVIoG-12" edge="1">
          <mxGeometry width="50" height="50" relative="1" as="geometry">
            <mxPoint x="40" y="630" as="sourcePoint"/>
            <mxPoint x="90" y="580" as="targetPoint"/>
            <Array as="points">
              <mxPoint x="240" y="430"/>
            </Array>
          </mxGeometry>
        </mxCell>
        <mxCell id="2sJFYJljz5uQflkSVIoG-18" value="Login" style="text;html=1;align=center;verticalAlign=middle;resizable=0;points=[];labelBackgroundColor=#ffffff;" parent="2sJFYJljz5uQflkSVIoG-17" vertex="1" connectable="0">
          <mxGeometry x="0.0044" y="1" relative="1" as="geometry">
            <mxPoint as="offset"/>
          </mxGeometry>
        </mxCell>
        <mxCell id="2sJFYJljz5uQflkSVIoG-19" value="Portalserver" style="rounded=0;whiteSpace=wrap;html=1;" parent="1" vertex="1">
          <mxGeometry x="850" y="200" width="170" height="320" as="geometry"/>
        </mxCell>
        <mxCell id="2sJFYJljz5uQflkSVIoG-20" value="" style="endArrow=classic;html=1;" parent="1" target="2sJFYJljz5uQflkSVIoG-19" edge="1">
          <mxGeometry width="50" height="50" relative="1" as="geometry">
            <mxPoint x="550" y="361" as="sourcePoint"/>
            <mxPoint x="90" y="580" as="targetPoint"/>
          </mxGeometry>
        </mxCell>
        <mxCell id="2sJFYJljz5uQflkSVIoG-21" value="Bestellen" style="text;html=1;align=center;verticalAlign=middle;resizable=0;points=[];labelBackgroundColor=#ffffff;" parent="2sJFYJljz5uQflkSVIoG-20" vertex="1" connectable="0">
          <mxGeometry x="-0.174" relative="1" as="geometry">
            <mxPoint as="offset"/>
          </mxGeometry>
        </mxCell>
        <mxCell id="2sJFYJljz5uQflkSVIoG-22" value="" style="endArrow=classic;startArrow=classic;html=1;exitX=1;exitY=0.25;exitDx=0;exitDy=0;" parent="1" source="2sJFYJljz5uQflkSVIoG-12" edge="1">
          <mxGeometry width="50" height="50" relative="1" as="geometry">
            <mxPoint x="40" y="630" as="sourcePoint"/>
            <mxPoint x="849" y="230" as="targetPoint"/>
          </mxGeometry>
        </mxCell>
        <mxCell id="2sJFYJljz5uQflkSVIoG-23" value="Auth. prÃ¼fen" style="text;html=1;align=center;verticalAlign=middle;resizable=0;points=[];labelBackgroundColor=#ffffff;" parent="2sJFYJljz5uQflkSVIoG-22" vertex="1" connectable="0">
          <mxGeometry x="0.8786" y="-2" relative="1" as="geometry">
            <mxPoint as="offset"/>
          </mxGeometry>
        </mxCell>
      </root>
    </mxGraphModel>
  </diagram>
</mxfile>
